<?xml version="1.0" standalone="no"?>
<!DOCTYPE svg PUBLIC "-//W3C//DTD SVG 20010904//EN"
 "http://www.w3.org/TR/2001/REC-SVG-20010904/DTD/svg10.dtd">
<svg version="1.0" xmlns="http://www.w3.org/2000/svg"
 width="512.000000pt" height="512.000000pt" viewBox="0 0 512.000000 512.000000"
 preserveAspectRatio="xMidYMid meet">
<metadata>
Created by potrace 1.15, written by Peter Selinger 2001-2017
</metadata>
<g transform="translate(0.000000,512.000000) scale(0.100000,-0.100000)"
fill="#000000" stroke="none">
<path d="M2544 4480 c-52 -11 -112 -51 -141 -94 l-28 -41 0 -665 0 -665 23
-36 c20 -34 22 -48 22 -202 l0 -165 -127 -4 c-114 -3 -133 -6 -171 -28 -82
-47 -85 -55 -162 -520 -11 -69 -35 -206 -52 -305 -17 -99 -36 -216 -43 -260
-24 -159 -85 -522 -100 -593 -20 -97 -19 -124 6 -156 46 -58 14 -56 806 -56
673 0 731 1 762 18 56 28 76 63 73 129 -1 31 -9 86 -17 122 -8 36 -24 120 -35
186 -12 66 -30 167 -40 225 -11 58 -28 155 -39 215 -27 144 -57 314 -81 450
-11 61 -29 160 -39 220 -11 61 -22 130 -26 153 -12 89 -77 170 -152 191 -21 6
-86 11 -145 11 l-108 0 0 169 c0 147 3 174 20 212 19 42 20 68 20 685 0 452
-3 651 -11 675 -28 84 -132 146 -215 129z"/>
</g>
</svg>
