<?xml version="1.0" standalone="no"?>
<!DOCTYPE svg PUBLIC "-//W3C//DTD SVG 20010904//EN"
 "http://www.w3.org/TR/2001/REC-SVG-20010904/DTD/svg10.dtd">
<svg version="1.0" xmlns="http://www.w3.org/2000/svg"
 width="90.000000pt" height="90.000000pt" viewBox="0 0 90.000000 90.000000"
 preserveAspectRatio="xMidYMid meet">
<metadata>
Created by potrace 1.10, written by Peter Selinger 2001-2011
</metadata>
<g transform="translate(0.000000,90.000000) scale(0.050000,-0.050000)"
fill="#000000" stroke="none">
<path d="M868 1228 c-8 -29 -8 -111 -1 -182 11 -118 8 -131 -28 -140 -41 -11
-45 -22 -78 -215 -32 -181 -40 -171 139 -171 179 0 171 -10 139 171 -33 193
-37 204 -78 215 -36 9 -39 22 -28 140 13 137 -1 234 -33 234 -11 0 -25 -23
-32 -52z"/>
</g>
</svg>
